<?xml version="1.0" encoding="UTF-8" standalone="no"?>
<!-- Uploaded to: SVG Repo, www.svgrepo.com, Generator: SVG Repo Mixer Tools -->

<svg
   fill="#000000"
   height="800px"
   width="800px"
   version="1.1"
   id="Capa_1"
   viewBox="0 0 463 463"
   xml:space="preserve"
   sodipodi:docname="icon.svg"
   inkscape:version="1.4 (e7c3feb100, 2024-10-09)"
   xmlns:inkscape="http://www.inkscape.org/namespaces/inkscape"
   xmlns:sodipodi="http://sodipodi.sourceforge.net/DTD/sodipodi-0.dtd"
   xmlns="http://www.w3.org/2000/svg"
   xmlns:svg="http://www.w3.org/2000/svg"><defs
   id="defs3" /><sodipodi:namedview
   id="namedview3"
   pagecolor="#ffffff"
   bordercolor="#000000"
   borderopacity="0.25"
   inkscape:showpageshadow="2"
   inkscape:pageopacity="0.0"
   inkscape:pagecheckerboard="0"
   inkscape:deskcolor="#d1d1d1"
   inkscape:zoom="1.0975"
   inkscape:cx="368.10934"
   inkscape:cy="364.46469"
   inkscape:window-width="1920"
   inkscape:window-height="1131"
   inkscape:window-x="0"
   inkscape:window-y="0"
   inkscape:window-maximized="1"
   inkscape:current-layer="Capa_1" />

<path
   style="fill:#b2874a;fill-opacity:1;stroke-width:0.586947;stroke-dasharray:none"
   d="m 630.07833,647.90559 c -3.39098,-1.54023 -7.00711,-5.80625 -8.03564,-9.47982 -2.36251,-8.43803 4.76749,-17.59836 13.72982,-17.63952 12.1513,-0.0558 18.7765,14.02951 10.91754,23.21094 -4.18399,4.88804 -10.95012,6.47998 -16.61172,3.9084 z"
   id="path27"
   transform="scale(0.57875)" /><path
   style="fill:#af0009;fill-opacity:1;stroke-width:0.642132;stroke-dasharray:none"
   d="m 216.59366,306.17399 c -22.03201,-4.51236 -41.23513,-19.11227 -51.97353,-39.51482 -12.95235,-24.60901 -11.74371,-54.84889 3.13246,-78.37314 26.148,-41.34874 82.03542,-47.35964 115.88919,-12.46429 22.19927,22.88227 28.11981,57.59513 14.80875,86.82534 -10.44258,22.93121 -30.31606,38.88282 -54.34718,43.62219 -6.4242,1.26697 -21.10671,1.2161 -27.50969,-0.0952 z m 50.65691,-63.04969 c 1.49295,-0.79508 3.65054,-2.81157 4.79464,-4.4811 1.79511,-2.61949 2.11374,-3.79656 2.32485,-8.58864 0.30689,-6.96554 -1.04869,-12.7637 -4.85536,-20.76782 -5.35535,-11.26038 -15.66193,-19.68511 -28.09059,-22.96164 -11.41765,-3.00999 -18.80368,-1.32202 -22.71788,5.19181 -2.35647,3.9215 -2.96652,7.73905 -1.89326,11.84747 1.5053,5.76221 7.64331,10.83762 13.15121,10.87447 8.63687,0.0577 16.03038,7.57773 16.04479,16.3192 0.009,5.1683 3.64339,10.67443 8.6822,13.15178 3.46058,1.70142 8.72605,1.45594 12.5594,-0.58553 z"
   id="path28" /><path
   style="fill:#b2874a;fill-opacity:1;stroke-width:0.586947;stroke-dasharray:none"
   d="m 76.348204,495.41242 c -8.378934,-4.74171 -10.220774,-14.7668 -3.983929,-21.68443 8.908197,-9.88057 24.805209,-4.0061 24.805209,9.16634 0,10.70638 -11.647993,17.70934 -20.82128,12.51809 z"
   id="path29"
   transform="scale(0.57875)" /><path
   style="fill:#b2874a;fill-opacity:1;stroke-width:0.415034;stroke-dasharray:none"
   d="m 466.71041,68.422608 c -6.7192,-1.892533 -10.98215,-7.308624 -10.98215,-13.952869 0,-6.661246 4.12832,-12.007044 10.7617,-13.935421 4.74371,-1.379032 9.38034,-0.119128 13.40055,3.641313 3.09052,2.890818 4.3623,5.879689 4.36837,10.266282 0.006,4.096581 -1.00869,6.661002 -3.85707,9.751132 -3.45497,3.7482 -9.152,5.508133 -13.6914,4.229563 z"
   id="path30"
   transform="scale(0.57875)" /><path
   style="fill:#28170b;fill-opacity:1;stroke-width:1.17389;stroke-dasharray:none"
   d="m 386.57318,797.6553 c -30.36968,-6.68564 -57.26607,-30.20778 -81.36749,-71.15958 -12.05003,-20.47473 -28.26471,-58.6334 -35.34276,-83.17351 -1.58421,-5.49256 -3.51582,-9.9835 -4.29249,-9.97985 -0.77665,0.004 -8.37042,1.49249 -16.87503,3.30855 -38.7294,8.27024 -80.45447,11.51511 -107.50368,8.36034 -51.917183,-6.05513 -84.148199,-28.34757 -93.760615,-64.84911 -2.560193,-9.7219 -2.797226,-30.60008 -0.471575,-41.53684 0.904232,-4.2523 3.056089,-12.22724 4.781903,-17.7221 l 3.137844,-9.99063 -3.809999,-4.82801 c -13.377615,-16.952 -9.028785,-42.9829 9.286073,-55.58385 7.877148,-5.41962 18.570569,-8.26103 27.085799,-7.19713 l 6.898893,0.86196 8.219537,-10.1118 c 4.52074,-5.5615 13.05018,-15.48378 18.9543,-22.04952 l 10.73477,-11.9377 -10.94016,-12.11306 C 80.741527,343.03726 55.312065,299.8393 46.916582,261.58119 c -0.933139,-4.25231 -1.66336,-14.10992 -1.622712,-21.90582 0.06207,-11.90449 0.633162,-15.81728 3.566246,-24.43383 10.280049,-30.19979 34.367275,-48.95435 73.787424,-57.45164 9.28958,-2.00244 19.16124,-2.90903 37.13604,-3.41048 29.04282,-0.81022 50.30963,1.23386 84.22877,8.09576 12.30738,2.4898 22.50304,4.3524 22.65703,4.1391 0.154,-0.2133 2.17483,-6.47634 4.49076,-13.91787 C 289.62831,93.354461 318.80613,43.602486 348.65059,20.565104 364.95512,7.9793975 384.13791,0.64428864 400.74753,0.64428864 c 14.15694,0 31.94553,5.83986776 45.88246,15.06289236 4.65994,3.083801 4.92176,3.111499 10.73999,1.136157 18.66924,-6.338372 39.59456,2.53384 48.45772,20.545786 2.60312,5.29014 3.16032,8.353631 3.16032,17.37541 0,9.988635 -0.36975,11.605367 -4.19991,18.364023 l -4.1999,7.411114 5.78552,11.519663 c 8.20131,16.329776 14.23645,31.219356 21.96635,54.194186 7.80881,23.20934 4.62287,21.40994 28.96959,16.36178 27.4756,-5.69692 42.27683,-7.4973 67.84362,-8.25227 38.576,-1.13914 62.97923,3.00551 86.78566,14.73972 28.18408,13.89196 45.11524,40.66761 45.03287,71.21691 -0.10967,40.67664 -28.68326,95.74819 -76.68513,147.7997 l -10.93248,11.85479 11.69284,12.7754 c 50.5896,55.27335 78.35047,111.42786 75.50145,152.72389 -1.41141,20.45807 -8.50694,35.99959 -22.80344,49.94689 -12.2042,11.90612 -34.96934,23.29017 -52.49555,26.25121 -5.02257,0.84857 -5.55175,1.36507 -8.78895,8.5785 -4.23184,9.42982 -14.51383,19.29042 -23.20141,22.25058 -7.7594,2.6439 -18.93312,2.6439 -26.69252,0 -8.40138,-2.86264 -19.05104,-12.89807 -22.86966,-21.55064 l -3.05536,-6.92312 -14.8338,-2.19455 c -8.15859,-1.20699 -21.6751,-3.70053 -30.03666,-5.5412 -8.91988,-1.96357 -15.64306,-2.86641 -16.26801,-2.18459 -0.58584,0.63915 -3.22777,7.83047 -5.87095,15.98072 -33.71156,103.94919 -87.79238,159.73457 -143.05901,147.56806 z m 32.02911,-26.26783 c 25.84255,-9.08291 53.78145,-43.75123 74.38966,-92.30724 5.50382,-12.96782 17.92894,-48.68401 17.92894,-51.537 0,-0.84301 -5.3637,-3.16114 -11.91934,-5.15138 -19.40535,-5.89135 -52.90641,-18.32838 -76.25018,-28.30734 l -21.80779,-9.32236 -16.84953,7.38689 c -20.48349,8.98002 -56.45588,22.4823 -77.41266,29.05693 -8.50461,2.66809 -15.68894,5.02354 -15.96519,5.23433 -0.84362,0.64373 9.89224,32.47613 15.79778,46.84133 14.27683,34.72828 29.68976,59.90799 47.78206,78.06032 12.37941,12.42049 24.65532,19.8973 36.78716,22.40567 7.74707,1.60179 18.99015,0.63755 27.51909,-2.36015 z M 644.54059,647.5669 c 4.58081,-2.7931 7.71293,-10.55874 6.38792,-15.83793 -2.99393,-11.92879 -19.19956,-15.90075 -26.5822,-6.51523 -8.20377,10.4294 -1.4889,24.86386 11.56658,24.86386 2.48051,0 6.36298,-1.12981 8.6277,-2.5107 z M 214.54812,617.89123 c 9.56768,-1.4615 23.48432,-3.98429 30.92585,-5.60619 12.75207,-2.77934 13.52307,-3.12951 13.40828,-6.08989 -0.067,-1.72754 -2.24066,-13.31193 -4.83037,-25.74308 -4.99793,-23.99096 -10.46698,-59.27399 -11.93963,-77.0273 l -0.88902,-10.71756 -17.49757,-13.07595 c -20.14349,-15.05325 -42.95229,-33.83477 -61.13543,-50.34097 l -12.65628,-11.48904 -5.17419,5.0032 c -7.3096,7.06806 -29.43209,33.38114 -29.43209,35.00733 0,0.74485 1.58885,4.44618 3.53078,8.22518 4.766,9.27461 4.95063,22.89433 0.44724,32.9905 -6.03435,13.52842 -21.251423,23.51083 -35.818536,23.497 l -6.713256,-0.006 -2.589959,8.38531 c -8.733312,28.27517 -4.366482,53.76919 11.681476,68.19768 11.75396,10.56783 30.948255,18.04654 54.589505,21.26982 14.02748,1.91254 54.12472,0.5706 74.0932,-2.47967 z m 388.35996,-4.69074 c 7.4157,-11.69637 24.46497,-19.90209 37.33967,-17.9714 9.93801,1.49029 21.04672,7.94629 27.05101,15.7211 2.93622,3.80204 6.29225,6.915 7.45785,6.91771 3.78578,0.009 19.59474,-5.34852 27.40336,-9.28634 51.3887,-25.91498 35.69661,-96.5127 -40.25305,-181.09605 -4.61373,-5.1382 -8.91808,-9.34218 -9.56521,-9.34218 -0.64714,0 -6.78284,5.17914 -13.63489,11.50921 -17.0583,15.75883 -37.48509,32.62446 -58.20276,48.05584 -9.56768,7.1264 -17.84652,13.35542 -18.39743,13.84226 -0.5509,0.48683 -1.87471,8.37849 -2.94181,17.53702 -3.62104,31.07821 -12.03541,79.56537 -16.7934,96.77062 -0.94938,3.433 1.43819,4.22161 26.53545,8.76463 31.70904,5.73986 29.39893,5.83651 34.00121,-1.42242 z M 308.35274,594.85344 c 22.86495,-7.5741 59.23645,-21.43613 61.25844,-23.34702 0.59295,-0.56037 -5.78551,-4.6671 -14.17435,-9.12609 -22.32095,-11.86445 -54.27592,-30.33072 -71.89457,-41.5467 -8.47422,-5.39467 -15.55009,-9.66607 -15.72417,-9.49201 -0.98327,0.98328 7.32327,51.8168 11.9333,73.02818 3.63591,16.7293 4.00242,18.04008 5.04437,18.04008 0.40995,0 11.01058,-3.4004 23.55698,-7.55644 z m 210.29961,6.78579 c 0,-0.42385 2.30004,-12.16601 5.11118,-26.09369 5.00148,-24.77946 11.01368,-63.10368 10.05062,-64.06672 -0.26694,-0.26694 -3.35674,1.44837 -6.86623,3.8118 -13.18862,8.88173 -52.76169,32.13655 -74.03114,43.50385 -15.08665,8.06295 -21.52145,12.13197 -20.36176,12.87566 5.79272,3.7148 79.53447,30.49206 84.48661,30.67895 0.8859,0.0334 1.61072,-0.286 1.61072,-0.70985 z m -102.31042,-51.2331 c 31.53541,-15.50296 75.89295,-41.16642 106.36279,-61.53715 l 15.00528,-10.03185 1.10194,-17.78327 c 1.41548,-22.84312 1.42395,-97.27731 0.0138,-121.58963 l -1.08807,-18.76026 -22.10632,-14.25161 c -12.15846,-7.83838 -30.8042,-19.3488 -41.43496,-25.5787 -23.37022,-13.69555 -70.25655,-37.97684 -73.33197,-37.97684 -2.47747,0 -32.55894,15.04884 -54.23718,27.13319 -39.47968,22.00764 -81.19765,48.93936 -82.29837,53.12906 -0.41194,1.56803 -1.44226,19.52195 -2.28958,39.89758 -1.19505,28.73766 -1.19505,45.35553 0,74.09319 0.84732,20.37563 1.86693,38.28862 2.26581,39.80664 0.82027,3.12176 23.68384,18.5076 57.19488,38.48882 20.75576,12.37578 76.55215,41.78378 79.37898,41.83743 0.78103,0.0148 7.73935,-3.07965 15.46292,-6.8766 z M 90.734931,496.15901 c 3.96444,-2.05008 7.841231,-8.9289 7.841231,-13.91315 0,-1.73706 -1.325883,-5.12858 -2.946406,-7.53672 -7.632784,-11.34252 -25.380155,-7.65529 -27.551336,5.72413 -2.051106,12.63949 11.045727,21.72991 22.656511,15.72574 z M 237.09822,400.22629 c 0,-39.08304 -0.43718,-58.8931 -1.28858,-58.38987 -6.51267,3.84945 -46.49099,37.17762 -60.06886,50.07678 l -8.52575,8.0996 8.52575,8.14706 c 11.73751,11.21612 31.67562,28.20669 47.7967,40.73067 7.42466,5.768 13.51319,10.48727 13.53006,10.48727 0.0169,0 0.0307,-26.61818 0.0307,-59.15151 z m 345.983,44.91309 c 13.59087,-10.89116 30.77844,-25.64865 46.12068,-39.59987 l 6.0667,-5.51666 -7.08718,-6.48058 c -19.26607,-17.61705 -61.44805,-52.71358 -63.35567,-52.71358 -0.2359,0 -0.4289,26.61636 -0.4289,59.14749 0,52.1852 0.22752,59.02334 1.93286,58.09286 1.06308,-0.58004 8.60126,-6.39838 16.75151,-12.92966 z M 167.86614,366.21925 c 18.98162,-17.00172 42.97719,-36.50182 61.19457,-49.73003 6.63165,-4.81545 11.52558,-9.32848 11.85926,-10.93621 0.31247,-1.50555 1.20831,-8.82588 1.99078,-16.26741 2.16334,-20.5743 6.0212,-44.63053 11.15895,-69.58317 2.55367,-12.40256 4.7086,-23.99552 4.7887,-25.76213 0.13779,-3.03893 -0.54874,-3.36797 -12.74014,-6.10625 -29.74468,-6.68087 -47.24262,-8.59544 -78.60321,-8.60054 -26.02461,-0.004 -31.12947,0.34203 -41.87877,2.84058 -15.57142,3.61939 -31.616855,11.27782 -39.94013,19.06327 -15.796267,14.77555 -19.971249,39.13548 -11.600655,67.68671 6.4051,21.84715 25.158019,54.43303 46.838545,81.38866 9.48225,11.78938 27.5572,31.85043 28.69716,31.85043 0.30027,0 8.50599,-7.12976 18.23494,-15.84391 z m 494.9593,5.08263 c 23.2631,-25.68566 42.77316,-53.10938 53.93866,-75.81719 20.92128,-42.54866 20.66615,-74.23837 -0.75736,-94.07276 -12.73772,-11.79287 -30.29757,-18.61665 -56.12961,-21.81203 -14.38178,-1.77899 -51.53951,-0.70588 -70.09557,2.02435 -16.77649,2.46838 -45.6975,8.36117 -46.95892,9.56809 -0.52635,0.50359 0.75519,8.71899 2.84786,18.25644 4.91395,22.39564 9.62587,50.58949 12.89336,77.14755 1.43113,11.63216 2.74915,21.26745 2.92895,21.41174 0.17978,0.14428 9.60464,7.22163 20.94412,15.72741 21.45357,16.0924 45.32677,36.00931 60.23054,50.24904 4.77809,4.56521 9.20668,8.10552 9.84131,7.86737 0.63463,-0.23816 5.27713,-4.98566 10.31666,-10.55001 z M 288.79097,276.0156 c 22.83638,-14.26624 43.00356,-25.88127 65.40518,-37.6693 9.05265,-4.76363 15.98172,-9.13879 15.39794,-9.72256 -4.1828,-4.1828 -83.47186,-32.0797 -85.41729,-30.05305 -1.58706,1.65332 -9.64511,41.58021 -12.84682,63.65479 -1.49049,10.2764 -2.97455,20.27898 -3.29788,22.22795 -0.32334,1.94898 -0.10015,3.54359 0.49599,3.54359 0.59612,0 9.71441,-5.39164 20.26288,-11.98142 z m 245.32431,11.29628 c 0,-3.95513 -7.48171,-49.15632 -10.44423,-63.09943 -2.10816,-9.92205 -4.17566,-19.92463 -4.59446,-22.22796 -0.41879,-2.30333 -1.31083,-4.18788 -1.98231,-4.18788 -5.04116,0 -82.29697,27.9654 -85.1968,30.83992 -0.58547,0.58035 7.24263,5.39453 17.3958,10.69817 23.04265,12.03664 41.66377,22.74564 64.84905,37.2947 17.13871,10.75474 19.97295,12.27063 19.97295,10.68248 z M 418.36557,207.63462 c 22.38883,-9.74414 50.00198,-20.15011 72.58237,-27.35257 10.63077,-3.39088 19.57545,-6.35113 19.87707,-6.57833 1.96834,-1.48262 -16.35441,-51.41045 -25.66872,-69.94494 l -4.84249,-9.636014 -9.50157,-0.09881 C 443.95455,93.744641 425.06587,69.852648 431.585,44.406026 c 2.29845,-8.971719 2.5852,-8.358097 -6.03422,-12.912866 -13.07601,-6.90977 -29.80653,-7.89275 -43.36644,-2.547938 -32.90678,12.970647 -65.56878,61.64591 -87.58909,130.531628 -4.57578,14.3143 -4.69469,15.12537 -2.21758,15.12537 6.10563,0 73.75949,24.81891 96.12838,35.26482 5.31538,2.4822 10.63412,4.55088 11.81944,4.59707 1.18531,0.0462 9.30334,-3.02707 18.04008,-6.82949 z M 475.31005,68.450745 c 15.94675,-6.662977 11.29499,-29.149138 -6.03015,-29.149138 -9.08476,0 -16.28213,9.991279 -13.81025,19.171145 1.50685,5.596011 4.58218,8.839047 9.89043,10.429787 5.13005,1.537334 5.19654,1.534315 9.94997,-0.451794 z"
   id="path31"
   transform="scale(0.57875)" /><path
   style="fill:#b2874a;fill-opacity:1;stroke-width:0.830068;stroke-dasharray:none"
   d="M 141.37683,372.89865 C 115.5297,344.78366 96.752135,317.86085 82.927723,289.09574 73.43819,269.35043 70.059499,254.99439 70.858388,237.81321 c 0.503834,-10.83562 2.538844,-18.02573 7.509504,-26.53264 7.107222,-12.16346 23.370568,-22.26048 45.720328,-28.38523 l 8.94139,-2.4503 33.71299,-0.0175 c 37.53373,-0.0195 44.7931,0.63037 72.24761,6.46759 18.01948,3.8312 19.32414,4.28936 19.32414,6.78611 0,1.05973 -1.83003,11.21795 -4.06674,22.5738 -5.71126,28.99627 -8.30788,44.83816 -11.2611,68.70359 -2.32664,18.80201 -2.76945,20.9434 -4.7799,23.11463 -1.21865,1.31609 -8.57107,7.22988 -16.33873,13.14173 -18.53843,14.10936 -34.1344,26.9075 -54.21412,44.48845 -9.0205,7.89796 -16.87845,14.64551 -17.4621,14.99456 -0.64281,0.38442 -4.1181,-2.6905 -8.81483,-7.79934 z"
   id="path34"
   transform="scale(0.57875)" /><path
   style="fill:#b2874a;fill-opacity:1;stroke-width:0.830068;stroke-dasharray:none"
   d="m 388.86742,772.63132 c -11.67325,-3.14427 -23.55106,-11.04419 -35.96129,-23.91784 -22.54575,-23.38765 -41.41831,-58.73802 -57.19077,-107.12457 -2.59018,-7.94615 -4.58212,-14.55295 -4.42652,-14.68178 0.1556,-0.12883 8.07335,-2.80888 17.59499,-5.95565 23.48882,-7.76275 54.7803,-19.53294 75.26626,-28.31118 l 16.95191,-7.26389 16.76107,7.17621 c 21.32601,9.13068 45.35968,18.29761 69.34158,26.44829 10.37714,3.52685 19.90968,6.95851 21.18344,7.62589 l 2.31593,1.21344 -6.00832,17.74275 c -3.30457,9.75851 -8.07725,22.86804 -10.60596,29.13227 -18.44298,45.68782 -45.82339,82.12055 -70.60476,93.9476 -10.61333,5.06528 -24.59501,6.6681 -34.61756,3.96846 z"
   id="path35"
   transform="scale(0.57875)" /><path
   style="fill:#b2874a;fill-opacity:1;stroke-width:0.830068;stroke-dasharray:none"
   d="m 646.6558,376.60026 c -3.03595,-2.66545 -10.74416,-9.48052 -17.12936,-15.1446 -14.34698,-12.72669 -33.54385,-28.25397 -52.98885,-42.85975 -8.14351,-6.11686 -14.80638,-11.25437 -14.80638,-11.41669 0,-0.16233 -1.45522,-11.12082 -3.23383,-24.35221 -3.64142,-27.08926 -7.05086,-47.6272 -11.77129,-70.90839 -3.85622,-19.01895 -3.94604,-20.65512 -1.168,-21.27595 28.35342,-6.33628 47.85814,-9.38667 68.10934,-10.65175 40.02785,-2.50051 64.3203,0.62537 85.6278,11.01835 8.13891,3.96984 10.70419,5.79515 16.96739,12.07302 11.23575,11.26205 15.29832,21.37205 15.23764,37.91999 -0.0373,10.1728 -1.27554,17.38334 -4.96495,28.91185 -7.06681,22.08204 -20.79352,46.70023 -40.27266,72.2271 -7.92811,10.38957 -25.86121,31.42508 -30.93039,36.28135 l -3.15653,3.02394 z"
   id="path36"
   transform="scale(0.57875)" /></svg>
